<svg xmlns="http://www.w3.org/2000/svg" xmlns:xlink="http://www.w3.org/1999/xlink" version="1.1" x="0px" y="0px" width="100px" height="100px" viewBox="0 0 100 100" enable-background="new 0 0 100 100" xml:space="preserve">
<g id="Captions">
</g>
<g id="Your_Icon">
	<g>
		<path d="M20.382,68.05c-0.717,0-1.39-0.387-1.746-1.026c-0.132-0.236-3.229-5.92-3.229-17.022c0-11.104,3.098-16.788,3.229-17.024    c0.403-0.724,1.208-1.118,2.028-1.007c0.377,0.054,9.316,1.35,16.321,4.771c0.854,0.417,1.682,0.864,2.46,1.328    c0.948,0.566,1.258,1.794,0.692,2.743c-0.566,0.949-1.793,1.258-2.743,0.692c-0.683-0.408-1.411-0.802-2.165-1.17    c-4.839-2.363-10.895-3.653-13.646-4.155c-0.795,2.071-2.178,6.698-2.178,13.822c0,7.188,1.373,11.769,2.169,13.82    c2.751-0.502,8.821-1.796,13.654-4.156c5.921-2.891,7.467-5.916,7.481-5.946c0.482-0.979,1.669-1.403,2.655-0.939    c0.987,0.467,1.425,1.622,0.976,2.616c-0.195,0.433-2.119,4.33-9.356,7.863c-7.004,3.421-15.944,4.718-16.321,4.771    C20.569,68.043,20.476,68.05,20.382,68.05z"/>
	</g>
	<g>
		<path d="M79.62,68.05c-0.094,0-0.188-0.007-0.282-0.02c-0.377-0.054-9.319-1.351-16.323-4.771    c-7.237-3.533-9.161-7.431-9.356-7.863c-0.455-1.006-0.008-2.191,0.999-2.646c1.004-0.456,2.19-0.008,2.646,0.999    c0,0,1.547,3.025,7.468,5.916c4.828,2.357,10.893,3.652,13.647,4.155c0.795-2.071,2.176-6.697,2.176-13.819    c0-7.12-1.38-11.745-2.177-13.821c-2.755,0.503-8.819,1.797-13.646,4.154c-5.887,2.875-7.454,5.888-7.468,5.917    c-0.455,1.006-1.642,1.455-2.646,0.999c-1.007-0.454-1.454-1.64-0.999-2.646c0.195-0.433,2.119-4.33,9.356-7.864    c7.005-3.421,15.946-4.717,16.323-4.771c0.821-0.109,1.625,0.283,2.028,1.007c0.132,0.236,3.228,5.921,3.228,17.024    c0,11.102-3.096,16.786-3.228,17.022C81.01,67.663,80.338,68.05,79.62,68.05z"/>
	</g>
	<g>
		<path d="M55.48,57.743c0,0-1.711,1.301-5.48,1.301s-5.48-1.301-5.48-1.301V42.711c0,0,2.506-0.982,5.48-0.982    c2.977,0,5.48,0.982,5.48,0.982V57.743z"/>
		<path d="M50,61.044c-4.318,0-6.461-1.534-6.69-1.709c-0.498-0.378-0.79-0.967-0.79-1.592V42.711c0-0.823,0.504-1.562,1.27-1.862    c0.117-0.046,2.896-1.12,6.211-1.12c3.316,0,6.095,1.075,6.211,1.12c0.766,0.301,1.27,1.04,1.27,1.862v15.032    c0,0.625-0.292,1.214-0.79,1.592C56.461,59.51,54.318,61.044,50,61.044z M46.52,56.51c0.689,0.249,1.839,0.534,3.48,0.534    c1.637,0,2.783-0.284,3.48-0.536V44.188c-0.88-0.223-2.133-0.46-3.48-0.46c-1.347,0-2.6,0.236-3.48,0.46V56.51z"/>
	</g>
	<g>
		<path d="M44.52,52.001h-9.361c-1.104,0-2-0.896-2-2s0.896-2,2-2h9.361c1.104,0,2,0.896,2,2S45.624,52.001,44.52,52.001z"/>
	</g>
	<g>
		<path d="M65.334,52.001H55.48c-1.104,0-2-0.896-2-2s0.896-2,2-2h9.854c1.104,0,2,0.896,2,2S66.438,52.001,65.334,52.001z"/>
	</g>
</g>
<g id="Layer_3">
</g>
</svg>